<svg xmlns="http://www.w3.org/2000/svg" viewBox="0 0 22 22">
  <defs id="defs1">
    <style type="text/css" id="current-color-scheme">
      .ColorScheme-Text {
        color:#232629;
      }
      </style>
  </defs>
  <path
    style="fill:#ffffff;fill-opacity:1;stroke:none"
    d="M 8 2 C 7.45 2 7 2.45 7 3 L 7 9 L 6 9 L 6 5 C 6 4.45 5.55 4 5 4 C 4.45 4 4 4.45 4 5 L 4 12.5 C 4 16.09 6.91 19 10.5 19 L 11.5 19 C 15.09 19 18 16.09 18 12.5 L 18 7 C 18 6.45 17.55 6 17 6 C 16.45 6 16 6.45 16 7 L 16 9.5 L 15 9.5 L 15 4 C 15 3.45 14.55 3 14 3 C 13.45 3 13 3.45 13 4 L 13 9 L 12 9 L 12 3 C 12 2.45 11.55 2 11 2 C 10.45 2 10 2.45 10 3 L 10 9 L 9 9 L 9 3 C 9 2.45 8.55 2 8 2 z"
    class="ColorScheme-Text"
    />
</svg>
